<?xml version="1.0" encoding="iso-8859-1"?>
<!-- Uploaded to: SVG Repo, www.svgrepo.com, Generator: SVG Repo Mixer Tools -->
<svg version="1.1" id="Layer_1" xmlns="http://www.w3.org/2000/svg" xmlns:xlink="http://www.w3.org/1999/xlink" 
	 viewBox="0 0 502 502" xml:space="preserve">
<g>
	<polygon style="fill:#D1E2EB;" points="381.574,130 309.574,58 192.426,58 120.426,130 10,130 10,444 492,444 492,130 	"/>
	<g>
		<circle style="fill:#4EC9DC;" cx="251" cy="264" r="143"/>
		<path d="M251,417c-84.364,0-153-68.636-153-153s68.636-153,153-153s153,68.636,153,153S335.364,417,251,417z M251,131
			c-73.336,0-133,59.664-133,133s59.664,133,133,133s133-59.664,133-133S324.336,131,251,131z"/>
	</g>
	<g>
		<path d="M288,100h-74c-5.523,0-10-4.477-10-10s4.477-10,10-10h74c5.523,0,10,4.477,10,10S293.523,100,288,100z"/>
	</g>
	<g>
		<rect x="398" y="97" style="fill:#4EC9DC;" width="94" height="33"/>
		<path d="M492,87h-94c-5.523,0-10,4.477-10,10v23h-2.284l-69.071-69.071C314.77,49.054,312.226,48,309.574,48H192.426
			c-2.652,0-5.196,1.054-7.071,2.929L116.284,120H10c-5.523,0-10,4.477-10,10v314c0,5.523,4.477,10,10,10h482
			c5.523,0,10-4.477,10-10V130V97C502,91.477,497.523,87,492,87z M408,107h74v13h-74V107z M482,140v294H20V140h100.426
			c2.652,0,5.196-1.054,7.071-2.929L196.568,68h108.863l69.071,69.071c1.875,1.875,4.419,2.929,7.071,2.929H482z"/>
	</g>
	<g>
		<circle style="fill:#4EC9DC;" cx="66" cy="186" r="18"/>
		<path d="M66,214c-15.439,0-28-12.561-28-28s12.561-28,28-28s28,12.561,28,28S81.439,214,66,214z M66,178c-4.411,0-8,3.589-8,8
			s3.589,8,8,8s8-3.589,8-8S70.411,178,66,178z"/>
	</g>
	<g>
		<circle style="fill:#D1E2EB;" cx="251" cy="264" r="103"/>
		<path d="M251,377c-62.309,0-113-50.691-113-113s50.691-113,113-113s113,50.691,113,113S313.309,377,251,377z M251,171
			c-51.28,0-93,41.72-93,93s41.72,93,93,93s93-41.72,93-93S302.28,171,251,171z"/>
	</g>
	<g>
		<path d="M183,274c-5.523,0-10-4.477-10-10c0-20.185,7.682-39.331,21.631-53.912c3.818-3.991,10.148-4.131,14.139-0.313
			s4.131,10.148,0.313,14.139C198.712,234.754,193,248.991,193,264C193,269.523,188.523,274,183,274z"/>
	</g>
	<g>
		<path d="M232.994,208.41c-4.395,0-8.423-2.918-9.639-7.362c-1.458-5.327,1.678-10.827,7.005-12.285
			C237.056,186.93,244,186,251,186c5.523,0,10,4.477,10,10s-4.477,10-10,10c-5.216,0-10.384,0.691-15.36,2.053
			C234.757,208.295,233.868,208.41,232.994,208.41z"/>
	</g>
	<g>
		<path d="M456,414c-5.523,0-10-4.477-10-10V239c0-5.523,4.477-10,10-10s10,4.477,10,10v165C466,409.523,461.523,414,456,414z"/>
	</g>
	<g>
		<path d="M456,201c-5.523,0-10-4.477-10-10v-20c0-5.523,4.477-10,10-10s10,4.477,10,10v20C466,196.523,461.523,201,456,201z"/>
	</g>
</g>
</svg>